<svg width="24" height="24" viewBox="0 0 24 24" fill="none" xmlns="http://www.w3.org/2000/svg">
<g id="Iconly/Bulk/Message">
<g id="Group">
<path id="Fill 1" opacity="0.4" d="M21.9999 15.94C21.9999 18.73 19.7599 20.99 16.9699 21H16.9599H7.0499C4.2699 21 1.9999 18.75 1.9999 15.96V15.95C1.9999 15.95 2.0059 11.524 2.0139 9.298C2.0149 8.88 2.4949 8.646 2.8219 8.906C5.1979 10.791 9.4469 14.228 9.4999 14.273C10.2099 14.842 11.1099 15.163 12.0299 15.163C12.9499 15.163 13.8499 14.842 14.5599 14.262C14.6129 14.227 18.7669 10.893 21.1789 8.977C21.5069 8.716 21.9889 8.95 21.9899 9.367C21.9999 11.576 21.9999 15.94 21.9999 15.94Z" fill="#DF572D"/>
<path id="Fill 4" d="M21.476 5.67351C20.61 4.04151 18.906 2.99951 17.03 2.99951H7.05C5.174 2.99951 3.47 4.04151 2.604 5.67351C2.41 6.03851 2.502 6.49351 2.825 6.75151L10.25 12.6905C10.77 13.1105 11.4 13.3195 12.03 13.3195C12.034 13.3195 12.037 13.3195 12.04 13.3195C12.043 13.3195 12.047 13.3195 12.05 13.3195C12.68 13.3195 13.31 13.1105 13.83 12.6905L21.255 6.75151C21.578 6.49351 21.67 6.03851 21.476 5.67351Z" fill="#DF572D"/>
</g>
</g>
</svg>
